<svg version="1.1" id="Layer_1" xmlns="http://www.w3.org/2000/svg" xmlns:xlink="http://www.w3.org/1999/xlink" x="0px" y="0px"
	 width="100%" viewBox="0 0 1001 1000" enable-background="new 0 0 1001 1000" xml:space="preserve">
<path fill="#06C755" opacity="1.000000" stroke="none" 
	d="
M1002.000000,199.000000 
	C1002.000000,400.025848 1002.000000,601.051697 1001.592285,802.401978 
	C1000.467896,805.667297 999.509094,808.572693 999.072876,811.554565 
	C995.464172,836.225098 987.588379,859.464661 975.877869,881.437500 
	C962.823181,905.932495 946.074219,927.420349 925.008789,945.653748 
	C912.283752,956.668152 898.723267,966.409241 884.001770,974.364319 
	C860.499939,987.064026 835.525757,995.676025 808.893860,999.091858 
	C808.192505,999.181885 807.628235,1000.339966 807.000000,1001.000000 
	C603.640808,1001.000000 400.281677,1001.000000 196.605377,1000.598389 
	C195.616638,999.807556 194.989120,999.218384 194.266830,999.059021 
	C183.595734,996.705688 172.788147,994.866150 162.255844,992.009277 
	C136.359039,984.984619 112.998825,972.602966 91.490738,956.740784 
	C75.613304,945.031189 61.555065,931.300598 49.445126,915.742310 
	C37.033081,899.796082 26.755022,882.550415 18.867968,863.838928 
	C10.871569,844.867920 5.603838,825.260681 2.928538,804.892029 
	C2.793177,803.861389 1.665598,802.960999 1.000001,802.000000 
	C1.000000,601.640808 1.000000,401.281677 1.407757,200.598007 
	C2.206032,199.433884 2.818841,198.627625 2.950677,197.749176 
	C3.753119,192.402405 3.777570,186.840302 5.301447,181.718948 
	C9.809244,166.569397 14.271163,151.354080 19.893572,136.599884 
	C29.484051,111.432777 44.960770,89.807762 63.353336,70.392181 
	C71.486877,61.806240 80.572472,53.979813 89.940239,46.731907 
	C119.067612,24.195869 151.887009,9.857138 188.319275,3.903408 
	C190.966949,3.470724 193.443756,1.992254 196.000000,1.000003 
	C399.359161,1.000000 602.718323,1.000000 806.401306,1.407030 
	C807.398560,2.199548 808.040527,2.847423 808.750000,2.932451 
	C831.221497,5.625639 852.456482,12.543777 872.876953,22.022562 
	C889.454224,29.717396 904.598389,39.704689 918.848022,51.192841 
	C932.424683,62.138550 944.443542,74.473938 955.082825,88.248360 
	C967.469666,104.285233 977.468445,121.647675 985.171265,140.400986 
	C992.543701,158.350113 997.473755,176.897812 1000.071106,196.106064 
	C1000.210754,197.138763 1001.334412,198.038406 1002.000000,199.000000 
M753.330444,631.819458 
	C765.881348,616.718079 779.483521,602.361267 790.798706,586.384766 
	C836.680542,521.601318 847.978882,451.215790 820.816406,376.127441 
	C800.230042,319.218048 761.319214,276.599792 711.378052,243.723068 
	C650.496460,203.644241 582.859802,185.099884 510.475464,183.271255 
	C459.557526,181.984909 409.950928,189.878754 362.197540,207.966171 
	C301.328125,231.021454 249.400436,266.431824 211.598373,320.233795 
	C173.273499,374.779907 159.281204,435.027130 172.987289,500.769409 
	C183.854736,552.896057 210.913651,596.000977 249.610336,631.807556 
	C303.617981,681.781555 368.396942,709.035950 440.549988,720.008545 
	C450.659241,721.545898 460.476990,723.831360 469.199799,729.484253 
	C473.440857,732.232605 476.768921,735.914124 477.090668,741.037598 
	C477.588745,748.968201 478.181305,757.025757 477.332916,764.878113 
	C475.922974,777.928589 473.174774,790.828369 471.419006,803.849487 
	C469.950012,814.744019 476.245270,820.975281 486.858368,818.256226 
	C495.940308,815.929321 505.168457,812.830566 513.249390,808.188599 
	C538.337769,793.776978 563.409729,779.228149 587.584839,763.356812 
	C646.553101,724.643066 703.332336,683.039246 753.330444,631.819458 
z"/>
<path fill="#000000" opacity="1.000000" stroke="none" 
	d="
M195.531342,1.000003 
	C193.443756,1.992254 190.966949,3.470724 188.319275,3.903408 
	C151.887009,9.857138 119.067612,24.195869 89.940239,46.731907 
	C80.572472,53.979813 71.486877,61.806240 63.353336,70.392181 
	C44.960770,89.807762 29.484051,111.432777 19.893572,136.599884 
	C14.271163,151.354080 9.809244,166.569397 5.301447,181.718948 
	C3.777570,186.840302 3.753119,192.402405 2.950677,197.749176 
	C2.818841,198.627625 2.206032,199.433884 1.407757,200.136749 
	C1.000000,133.740372 1.000000,67.480751 1.000000,1.000000 
	C65.687393,1.000000 130.375031,1.000000 195.531342,1.000003 
z"/>
<path fill="#000000" opacity="1.000000" stroke="none" 
	d="
M1.000001,802.468628 
	C1.665598,802.960999 2.793177,803.861389 2.928538,804.892029 
	C5.603838,825.260681 10.871569,844.867920 18.867968,863.838928 
	C26.755022,882.550415 37.033081,899.796082 49.445126,915.742310 
	C61.555065,931.300598 75.613304,945.031189 91.490738,956.740784 
	C112.998825,972.602966 136.359039,984.984619 162.255844,992.009277 
	C172.788147,994.866150 183.595734,996.705688 194.266830,999.059021 
	C194.989120,999.218384 195.616638,999.807556 196.144119,1000.598389 
	C131.072235,1001.000000 66.144470,1001.000000 1.000000,1001.000000 
	C1.000000,934.979248 1.000000,868.958313 1.000001,802.468628 
z"/>
<path fill="#000000" opacity="1.000000" stroke="none" 
	d="
M1002.000000,198.531342 
	C1001.334412,198.038406 1000.210754,197.138763 1000.071106,196.106064 
	C997.473755,176.897812 992.543701,158.350113 985.171265,140.400986 
	C977.468445,121.647675 967.469666,104.285233 955.082825,88.248360 
	C944.443542,74.473938 932.424683,62.138550 918.848022,51.192841 
	C904.598389,39.704689 889.454224,29.717396 872.876953,22.022562 
	C852.456482,12.543777 831.221497,5.625639 808.750000,2.932451 
	C808.040527,2.847423 807.398560,2.199548 806.862549,1.407030 
	C871.927551,1.000000 936.855164,1.000000 1002.000000,1.000000 
	C1002.000000,66.687401 1002.000000,132.375046 1002.000000,198.531342 
z"/>
<path fill="#000000" opacity="1.000000" stroke="none" 
	d="
M807.468628,1001.000000 
	C807.628235,1000.339966 808.192505,999.181885 808.893860,999.091858 
	C835.525757,995.676025 860.499939,987.064026 884.001770,974.364319 
	C898.723267,966.409241 912.283752,956.668152 925.008789,945.653748 
	C946.074219,927.420349 962.823181,905.932495 975.877869,881.437500 
	C987.588379,859.464661 995.464172,836.225098 999.072876,811.554565 
	C999.509094,808.572693 1000.467896,805.667297 1001.592285,802.863220 
	C1002.000000,868.926453 1002.000000,934.852966 1002.000000,1001.000000 
	C937.312622,1001.000000 872.624939,1001.000000 807.468628,1001.000000 
z"/>
<path fill="#FEFFFE" opacity="1.000000" stroke="none" 
	d="
M753.080811,632.071777 
	C703.332336,683.039246 646.553101,724.643066 587.584839,763.356812 
	C563.409729,779.228149 538.337769,793.776978 513.249390,808.188599 
	C505.168457,812.830566 495.940308,815.929321 486.858368,818.256226 
	C476.245270,820.975281 469.950012,814.744019 471.419006,803.849487 
	C473.174774,790.828369 475.922974,777.928589 477.332916,764.878113 
	C478.181305,757.025757 477.588745,748.968201 477.090668,741.037598 
	C476.768921,735.914124 473.440857,732.232605 469.199799,729.484253 
	C460.476990,723.831360 450.659241,721.545898 440.549988,720.008545 
	C368.396942,709.035950 303.617981,681.781555 249.610336,631.807556 
	C210.913651,596.000977 183.854736,552.896057 172.987289,500.769409 
	C159.281204,435.027130 173.273499,374.779907 211.598373,320.233795 
	C249.400436,266.431824 301.328125,231.021454 362.197540,207.966171 
	C409.950928,189.878754 459.557526,181.984909 510.475464,183.271255 
	C582.859802,185.099884 650.496460,203.644241 711.378052,243.723068 
	C761.319214,276.599792 800.230042,319.218048 820.816406,376.127441 
	C847.978882,451.215790 836.680542,521.601318 790.798706,586.384766 
	C779.483521,602.361267 765.881348,616.718079 753.080811,632.071777 
M564.836060,439.499939 
	C564.836060,450.556885 564.836060,461.613831 564.836060,474.078522 
	C562.763367,471.408569 561.543030,469.899384 560.389343,468.340942 
	C540.283142,441.180847 520.145935,414.043518 500.133301,386.814667 
	C497.535431,383.280121 494.700104,381.474670 490.129822,381.740509 
	C483.654633,382.117157 477.140930,381.803802 470.644104,381.846191 
	C465.040985,381.882751 462.875519,383.777435 462.869812,389.167053 
	C462.819214,436.979065 462.820099,484.791168 462.869720,532.603210 
	C462.875275,537.957947 465.116516,540.055481 470.568390,540.138306 
	C476.897461,540.234436 483.229065,540.171814 489.559570,540.161743 
	C498.014801,540.148254 499.487366,538.691467 499.490204,530.273499 
	C499.498627,505.118011 499.493225,479.962524 499.493225,454.807037 
	C499.493225,453.035004 499.493256,451.263000 499.493256,447.949982 
	C501.822662,450.998901 503.218842,452.777405 504.563690,454.593903 
	C524.571899,481.619232 544.603943,508.627045 564.534424,535.709656 
	C566.819885,538.815247 569.420654,540.335815 573.331726,540.219360 
	C580.156006,540.016174 586.992188,540.247070 593.820435,540.128845 
	C599.047729,540.038269 601.139648,537.961731 601.143188,532.840332 
	C601.175964,484.861664 601.177429,436.883026 601.140320,388.904388 
	C601.136536,383.961273 599.079712,381.925201 594.185913,381.861115 
	C587.190247,381.769440 580.192383,381.817535 573.195557,381.841583 
	C566.558716,381.864410 564.854370,383.512970 564.844360,390.021484 
	C564.819458,406.180939 564.836121,422.340454 564.836060,439.499939 
M649.500061,540.163086 
	C673.651428,540.162903 697.802795,540.182800 721.954163,540.149048 
	C728.372131,540.140076 730.378479,538.185242 730.469666,531.870056 
	C730.561035,525.542053 730.514465,519.211609 730.485779,512.882385 
	C730.450989,505.211029 728.752625,503.522369 721.000488,503.514313 
	C702.678772,503.495239 684.357117,503.514313 666.035400,503.497772 
	C664.279236,503.496185 662.523132,503.352814 660.862244,503.279449 
	C660.862244,494.930878 660.862244,487.178375 660.862244,479.163208 
	C663.053528,479.163208 664.875427,479.163208 666.697327,479.163208 
	C684.852478,479.163177 703.007568,479.170898 721.162720,479.159546 
	C728.873596,479.154694 730.446655,477.557648 730.486145,469.700836 
	C730.514526,464.037903 730.499146,458.374725 730.490234,452.711639 
	C730.476746,444.064789 728.960449,442.525574 720.259460,442.514832 
	C702.270874,442.492676 684.282349,442.508087 666.293762,442.507996 
	C664.520142,442.507965 662.746521,442.507965 660.785645,442.507965 
	C660.785645,434.125214 660.785645,426.381165 660.785645,418.163208 
	C662.862549,418.163208 664.650757,418.163208 666.438965,418.163208 
	C685.093750,418.163055 703.748657,418.182983 722.403381,418.151001 
	C728.286804,418.140900 730.369446,416.218628 730.460449,410.535004 
	C730.575134,403.374756 730.600403,396.208801 730.447083,389.049957 
	C730.335510,383.838715 728.234924,381.860535 723.022217,381.854675 
	C692.375061,381.820221 661.727844,381.817627 631.080688,381.857819 
	C625.942627,381.864532 623.866272,383.943176 623.861938,389.199982 
	C623.822388,437.002899 623.822021,484.805817 623.864014,532.608765 
	C623.868774,538.008789 626.018616,540.048218 631.511353,540.138794 
	C637.172913,540.232178 642.837097,540.161804 649.500061,540.163086 
M277.165894,487.499939 
	C277.166199,502.322540 277.121185,517.145325 277.189667,531.967651 
	C277.216248,537.722717 279.422272,540.123596 284.868195,540.134521 
	C315.345978,540.195312 345.824036,540.192688 376.301819,540.136108 
	C381.862427,540.125793 383.942932,537.827148 383.988342,532.072754 
	C384.040924,525.411377 384.024902,518.749084 383.993713,512.087463 
	C383.963074,505.538300 381.960114,503.527222 375.250458,503.513123 
	C356.763947,503.474182 338.277283,503.499115 319.790680,503.498779 
	C318.008911,503.498749 316.227142,503.498749 314.000671,503.498749 
	C314.000671,501.194336 314.000671,499.396362 314.000671,497.598419 
	C314.000641,461.791016 314.010803,425.983643 313.991028,390.176239 
	C313.987518,383.827606 311.991272,381.865051 305.674896,381.839600 
	C299.346283,381.814117 293.017426,381.830231 286.688690,381.834808 
	C278.832855,381.840485 277.171906,383.520172 277.169617,391.568695 
	C277.160645,423.212433 277.165894,454.856171 277.165894,487.499939 
M440.163177,514.499939 
	C440.163177,473.177826 440.166229,431.855743 440.160187,390.533630 
	C440.159119,383.300751 438.687592,381.854736 431.364136,381.839539 
	C425.032562,381.826416 418.700867,381.821472 412.369324,381.841095 
	C405.443146,381.862549 403.849609,383.434113 403.843475,390.363007 
	C403.825165,411.024048 403.836823,431.685089 403.836853,452.346130 
	C403.836853,478.838898 403.825256,505.331696 403.845520,531.824463 
	C403.850372,538.200562 405.755829,540.099670 412.204987,540.149048 
	C419.202576,540.202576 426.203278,540.261719 433.198181,540.111572 
	C438.089478,540.006653 440.078857,537.877441 440.143768,532.994873 
	C440.221283,527.164185 440.162750,521.331604 440.163177,514.499939 
z"/>
<path fill="#06C755" opacity="1.000000" stroke="none" 
	d="
M564.836060,438.999939 
	C564.836121,422.340454 564.819458,406.180939 564.844360,390.021484 
	C564.854370,383.512970 566.558716,381.864410 573.195557,381.841583 
	C580.192383,381.817535 587.190247,381.769440 594.185913,381.861115 
	C599.079712,381.925201 601.136536,383.961273 601.140320,388.904388 
	C601.177429,436.883026 601.175964,484.861664 601.143188,532.840332 
	C601.139648,537.961731 599.047729,540.038269 593.820435,540.128845 
	C586.992188,540.247070 580.156006,540.016174 573.331726,540.219360 
	C569.420654,540.335815 566.819885,538.815247 564.534424,535.709656 
	C544.603943,508.627045 524.571899,481.619232 504.563690,454.593903 
	C503.218842,452.777405 501.822662,450.998901 499.493256,447.949982 
	C499.493256,451.263000 499.493225,453.035004 499.493225,454.807037 
	C499.493225,479.962524 499.498627,505.118011 499.490204,530.273499 
	C499.487366,538.691467 498.014801,540.148254 489.559570,540.161743 
	C483.229065,540.171814 476.897461,540.234436 470.568390,540.138306 
	C465.116516,540.055481 462.875275,537.957947 462.869720,532.603210 
	C462.820099,484.791168 462.819214,436.979065 462.869812,389.167053 
	C462.875519,383.777435 465.040985,381.882751 470.644104,381.846191 
	C477.140930,381.803802 483.654633,382.117157 490.129822,381.740509 
	C494.700104,381.474670 497.535431,383.280121 500.133301,386.814667 
	C520.145935,414.043518 540.283142,441.180847 560.389343,468.340942 
	C561.543030,469.899384 562.763367,471.408569 564.836060,474.078522 
	C564.836060,461.613831 564.836060,450.556885 564.836060,438.999939 
z"/>
<path fill="#06C755" opacity="1.000000" stroke="none" 
	d="
M649.000122,540.163086 
	C642.837097,540.161804 637.172913,540.232178 631.511353,540.138794 
	C626.018616,540.048218 623.868774,538.008789 623.864014,532.608765 
	C623.822021,484.805817 623.822388,437.002899 623.861938,389.199982 
	C623.866272,383.943176 625.942627,381.864532 631.080688,381.857819 
	C661.727844,381.817627 692.375061,381.820221 723.022217,381.854675 
	C728.234924,381.860535 730.335510,383.838715 730.447083,389.049957 
	C730.600403,396.208801 730.575134,403.374756 730.460449,410.535004 
	C730.369446,416.218628 728.286804,418.140900 722.403381,418.151001 
	C703.748657,418.182983 685.093750,418.163055 666.438965,418.163208 
	C664.650757,418.163208 662.862549,418.163208 660.785645,418.163208 
	C660.785645,426.381165 660.785645,434.125214 660.785645,442.507965 
	C662.746521,442.507965 664.520142,442.507965 666.293762,442.507996 
	C684.282349,442.508087 702.270874,442.492676 720.259460,442.514832 
	C728.960449,442.525574 730.476746,444.064789 730.490234,452.711639 
	C730.499146,458.374725 730.514526,464.037903 730.486145,469.700836 
	C730.446655,477.557648 728.873596,479.154694 721.162720,479.159546 
	C703.007568,479.170898 684.852478,479.163177 666.697327,479.163208 
	C664.875427,479.163208 663.053528,479.163208 660.862244,479.163208 
	C660.862244,487.178375 660.862244,494.930878 660.862244,503.279449 
	C662.523132,503.352814 664.279236,503.496185 666.035400,503.497772 
	C684.357117,503.514313 702.678772,503.495239 721.000488,503.514313 
	C728.752625,503.522369 730.450989,505.211029 730.485779,512.882385 
	C730.514465,519.211609 730.561035,525.542053 730.469666,531.870056 
	C730.378479,538.185242 728.372131,540.140076 721.954163,540.149048 
	C697.802795,540.182800 673.651428,540.162903 649.000122,540.163086 
z"/>
<path fill="#07C756" opacity="1.000000" stroke="none" 
	d="
M277.165894,486.999939 
	C277.165894,454.856171 277.160645,423.212433 277.169617,391.568695 
	C277.171906,383.520172 278.832855,381.840485 286.688690,381.834808 
	C293.017426,381.830231 299.346283,381.814117 305.674896,381.839600 
	C311.991272,381.865051 313.987518,383.827606 313.991028,390.176239 
	C314.010803,425.983643 314.000641,461.791016 314.000671,497.598419 
	C314.000671,499.396362 314.000671,501.194336 314.000671,503.498749 
	C316.227142,503.498749 318.008911,503.498749 319.790680,503.498779 
	C338.277283,503.499115 356.763947,503.474182 375.250458,503.513123 
	C381.960114,503.527222 383.963074,505.538300 383.993713,512.087463 
	C384.024902,518.749084 384.040924,525.411377 383.988342,532.072754 
	C383.942932,537.827148 381.862427,540.125793 376.301819,540.136108 
	C345.824036,540.192688 315.345978,540.195312 284.868195,540.134521 
	C279.422272,540.123596 277.216248,537.722717 277.189667,531.967651 
	C277.121185,517.145325 277.166199,502.322540 277.165894,486.999939 
z"/>
<path fill="#06C755" opacity="1.000000" stroke="none" 
	d="
M440.163177,514.999878 
	C440.162750,521.331604 440.221283,527.164185 440.143768,532.994873 
	C440.078857,537.877441 438.089478,540.006653 433.198181,540.111572 
	C426.203278,540.261719 419.202576,540.202576 412.204987,540.149048 
	C405.755829,540.099670 403.850372,538.200562 403.845520,531.824463 
	C403.825256,505.331696 403.836853,478.838898 403.836853,452.346130 
	C403.836823,431.685089 403.825165,411.024048 403.843475,390.363007 
	C403.849609,383.434113 405.443146,381.862549 412.369324,381.841095 
	C418.700867,381.821472 425.032562,381.826416 431.364136,381.839539 
	C438.687592,381.854736 440.159119,383.300751 440.160187,390.533630 
	C440.166229,431.855743 440.163177,473.177826 440.163177,514.999878 
z"/>
</svg>